<?xml version="1.0" ?><svg viewBox="0 0 64 64" xmlns="http://www.w3.org/2000/svg"><defs><style>.cls-1{fill:#f7ba6f;}.cls-2{fill:#f8c88c;}.cls-3{fill:#8cc63f;}.cls-4{fill:#a3d165;}.cls-5{fill:#aa7b50;}.cls-6{fill:#bb9573;}.cls-7{fill:red;}.cls-8{fill:#ee655d;}.cls-9{fill:#fccb7e;}.cls-10{fill:#fdd598;}.cls-11{fill:#603813;}.cls-12{fill:#806042;}.cls-13{fill:#d49f5f;}</style></defs><title/><g data-name="Layer 25" id="Layer_25"><rect class="cls-1" height="12" rx="6" width="62" x="1" y="51"/><path class="cls-2" d="M57,51H54a6,6,0,0,1,0,12h3a6,6,0,0,0,0-12Z"/><path class="cls-1" d="M7,19H57a6,6,0,0,0,6-6v-.245a5.978,5.978,0,0,0-3.458-5.44Q32-5.315,4.458,7.315A5.978,5.978,0,0,0,1,12.755V13A6,6,0,0,0,7,19Z"/><path class="cls-2" d="M59.542,7.315A65.131,65.131,0,0,0,30.5,1.043,66.007,66.007,0,0,1,56.542,7.315,5.978,5.978,0,0,1,60,12.755V13a6,6,0,0,1-6,6h3a6,6,0,0,0,6-6v-.245A5.978,5.978,0,0,0,59.542,7.315Z"/><path class="cls-3" d="M58.6,24.117H5.4a1.933,1.933,0,0,0-1.859,1.4A13.155,13.155,0,0,0,3,27.983a2.893,2.893,0,0,0,5.622.967h.356a2.883,2.883,0,0,0,5.444,0h.356a2.883,2.883,0,0,0,5.444,0h.356a2.883,2.883,0,0,0,5.444,0h.356a2.883,2.883,0,0,0,5.444,0h.356a2.883,2.883,0,0,0,5.444,0h.356a2.883,2.883,0,0,0,5.444,0h.356a2.883,2.883,0,0,0,5.444,0h.356a2.883,2.883,0,0,0,5.444,0h.356A2.893,2.893,0,0,0,61,27.983a13.155,13.155,0,0,0-.543-2.465A1.933,1.933,0,0,0,58.6,24.117Z"/><path class="cls-4" d="M60.457,25.4A1.933,1.933,0,0,0,58.6,24h-3a1.933,1.933,0,0,1,1.859,1.4A13.138,13.138,0,0,1,58,27.867a2.889,2.889,0,0,1-1.4,2.469,2.843,2.843,0,0,0,1.5.431,2.9,2.9,0,0,0,2.9-2.9A13.138,13.138,0,0,0,60.457,25.4Z"/><path class="cls-5" d="M59.2,30.664A2.864,2.864,0,0,1,56.034,30H54.366a2.858,2.858,0,0,1-4.132,0H48.566a2.858,2.858,0,0,1-4.132,0H42.766a2.858,2.858,0,0,1-4.132,0H36.966a2.858,2.858,0,0,1-4.132,0H31.166a2.858,2.858,0,0,1-4.132,0H25.366a2.858,2.858,0,0,1-4.132,0H19.566a2.858,2.858,0,0,1-4.132,0H13.766a2.858,2.858,0,0,1-4.132,0H7.966a2.864,2.864,0,0,1-3.167.664A4,4,0,0,0,7,38H57a4,4,0,0,0,2.2-7.336Z"/><path class="cls-6" d="M59.2,30.664A2.864,2.864,0,0,1,56.034,30H54.366a2.869,2.869,0,0,1-.666.5,2.817,2.817,0,0,0,1.4.383,2.883,2.883,0,0,0,1.1-.219A4,4,0,0,1,54,38h3a4,4,0,0,0,2.2-7.336Z"/><rect class="cls-7" height="5" rx="2.5" width="58" x="3" y="19"/><path class="cls-8" d="M58.5,19h-3a2.5,2.5,0,0,1,0,5h3a2.5,2.5,0,0,0,0-5Z"/><path class="cls-9" d="M58.5,38H5.643a2.6,2.6,0,0,0-2.63,2.242A2.5,2.5,0,0,0,5.5,43H45l3.586,3.586a2,2,0,0,0,2.828,0L55,43h3.357a2.6,2.6,0,0,0,2.63-2.242A2.5,2.5,0,0,0,58.5,38Z"/><path class="cls-10" d="M60.99,40.76A2.6,2.6,0,0,1,58.36,43h-3a2.6,2.6,0,0,0,2.63-2.24A2.5,2.5,0,0,0,55.5,38h3A2.5,2.5,0,0,1,60.99,40.76Z"/><path class="cls-11" d="M57,43H55l-3.586,3.586a2,2,0,0,1-2.828,0L45,43H7a4,4,0,0,0,0,8H57a4,4,0,0,0,0-8Z"/><path class="cls-12" d="M61,47a4,4,0,0,1-4,4H54a4,4,0,0,0,.9-7.9L55,43h2A4,4,0,0,1,61,47Z"/><path d="M64,13v-.245a6.986,6.986,0,0,0-4.041-6.349C41.406-2.1,22.593-2.1,4.041,6.406A6.986,6.986,0,0,0,0,12.755V13a6.994,6.994,0,0,0,3.209,5.876,3.453,3.453,0,0,0,0,5.245,2.914,2.914,0,0,0-.623,1.121A11.045,11.045,0,0,0,2,27.983a3.88,3.88,0,0,0,1.19,2.795,4.955,4.955,0,0,0,.4,6.854,3.447,3.447,0,0,0-1.567,2.511A3.422,3.422,0,0,0,3.552,43.4a4.946,4.946,0,0,0,.227,7.4A7,7,0,0,0,7,64H57a7,7,0,0,0,3.221-13.208,4.942,4.942,0,0,0,.194-7.424,3.454,3.454,0,0,0,1.567-2.511,3.514,3.514,0,0,0-.886-2.7,3.475,3.475,0,0,0-.648-.547,4.96,4.96,0,0,0,.362-6.827A3.88,3.88,0,0,0,62,27.983a11.033,11.033,0,0,0-.582-2.74,2.911,2.911,0,0,0-.623-1.122,3.453,3.453,0,0,0,0-5.245A6.994,6.994,0,0,0,64,13ZM2,13v-.245A4.98,4.98,0,0,1,4.875,8.224,64.63,64.63,0,0,1,32,2.034a64.63,64.63,0,0,1,27.125,6.19A4.98,4.98,0,0,1,62,12.755V13a5.006,5.006,0,0,1-5,5H7A5.006,5.006,0,0,1,2,13ZM58.822,29.739h0a1.837,1.837,0,0,1-.5.122l-.093.009a1.817,1.817,0,0,1-.338-.02,1.466,1.466,0,0,1-.548-.15,1.807,1.807,0,0,1-.215-.109,2.094,2.094,0,0,1-.807-.976,1,1,0,0,0-.943-.665h-.355a1,1,0,0,0-.942.665,1.9,1.9,0,0,1-.609.837,1.669,1.669,0,0,1-.133.106,1.884,1.884,0,0,1-.35.177,1.789,1.789,0,0,1-.285.084c-.035.008-.072.011-.108.017a1.958,1.958,0,0,1-.592,0c-.035-.006-.07-.009-.1-.016a1.94,1.94,0,0,1-.288-.085,1.872,1.872,0,0,1-.346-.175c-.048-.031-.09-.071-.134-.106a1.894,1.894,0,0,1-.611-.839,1,1,0,0,0-.942-.665h-.356a1,1,0,0,0-.942.665,1.9,1.9,0,0,1-.611.839c-.041.033-.078.071-.12.1a1.9,1.9,0,0,1-.363.183,1.847,1.847,0,0,1-.281.083c-.038.008-.077.012-.115.018a1.944,1.944,0,0,1-.58,0c-.038-.006-.077-.01-.115-.018a1.847,1.847,0,0,1-.281-.083,1.9,1.9,0,0,1-.363-.183c-.042-.028-.079-.066-.12-.1a1.9,1.9,0,0,1-.611-.839,1,1,0,0,0-.942-.665h-.356a1,1,0,0,0-.942.665,1.9,1.9,0,0,1-.611.84c-.044.034-.084.073-.129.1a1.928,1.928,0,0,1-.639.262c-.034.007-.069.01-.1.016a1.958,1.958,0,0,1-.592,0c-.036-.006-.072-.009-.108-.017a1.789,1.789,0,0,1-.285-.084,1.932,1.932,0,0,1-.346-.174c-.049-.032-.092-.073-.138-.11a1.9,1.9,0,0,1-.608-.836,1,1,0,0,0-.942-.665h-.355a1,1,0,0,0-.943.665,1.9,1.9,0,0,1-.608.837,1.642,1.642,0,0,1-.132.1,1.919,1.919,0,0,1-.353.179,1.859,1.859,0,0,1-.282.083c-.038.009-.077.012-.115.018a1.944,1.944,0,0,1-.58,0c-.038-.006-.077-.01-.115-.018a1.814,1.814,0,0,1-.281-.083,1.9,1.9,0,0,1-.363-.183c-.043-.028-.079-.066-.12-.1a1.9,1.9,0,0,1-.611-.839,1,1,0,0,0-.942-.665h-.356a1,1,0,0,0-.942.665,1.9,1.9,0,0,1-.611.839c-.041.033-.077.071-.12.1a1.9,1.9,0,0,1-.363.183,1.814,1.814,0,0,1-.281.083c-.038.008-.077.012-.115.018a1.944,1.944,0,0,1-.58,0c-.038-.006-.077-.009-.115-.018a1.859,1.859,0,0,1-.282-.083,1.919,1.919,0,0,1-.353-.179,1.642,1.642,0,0,1-.132-.1,1.9,1.9,0,0,1-.608-.837,1,1,0,0,0-.943-.665h-.355a1,1,0,0,0-.942.665,1.9,1.9,0,0,1-.609.837,1.471,1.471,0,0,1-.133.106,1.884,1.884,0,0,1-.35.177,1.789,1.789,0,0,1-.285.084c-.035.008-.072.011-.108.017a1.958,1.958,0,0,1-.592,0c-.035-.006-.07-.009-.1-.016a1.94,1.94,0,0,1-.288-.085,1.876,1.876,0,0,1-.349-.177c-.046-.03-.087-.069-.131-.1a1.894,1.894,0,0,1-.611-.839,1,1,0,0,0-.942-.665h-.356a1,1,0,0,0-.942.665,1.9,1.9,0,0,1-.611.839c-.041.033-.078.071-.12.1a1.9,1.9,0,0,1-.363.183,1.847,1.847,0,0,1-.281.083c-.038.008-.077.012-.115.018a1.944,1.944,0,0,1-.58,0c-.038-.006-.077-.01-.115-.018a1.847,1.847,0,0,1-.281-.083,1.9,1.9,0,0,1-.363-.183c-.042-.028-.079-.066-.12-.1a1.9,1.9,0,0,1-.611-.839,1,1,0,0,0-.942-.665h-.356a1,1,0,0,0-.942.665,1.894,1.894,0,0,1-.611.839c-.044.035-.086.075-.134.106a1.872,1.872,0,0,1-.346.175,1.94,1.94,0,0,1-.288.085c-.034.007-.069.01-.1.016a1.958,1.958,0,0,1-.592,0c-.036-.006-.073-.009-.108-.017a1.789,1.789,0,0,1-.285-.084,1.884,1.884,0,0,1-.35-.177,1.669,1.669,0,0,1-.133-.106,1.9,1.9,0,0,1-.609-.837,1,1,0,0,0-.942-.665H8.623a1,1,0,0,0-.943.665,2.1,2.1,0,0,1-.808.977,1.864,1.864,0,0,1-.214.108,1.869,1.869,0,0,1-.3.11,1.861,1.861,0,0,1-.25.04,1.817,1.817,0,0,1-.338.02c-.031,0-.062-.005-.092-.009a1.844,1.844,0,0,1-.5-.122h0A1.9,1.9,0,0,1,4,27.983a10.816,10.816,0,0,1,.5-2.19.937.937,0,0,1,.9-.676H58.6a.937.937,0,0,1,.9.677A10.8,10.8,0,0,1,60,27.983,1.9,1.9,0,0,1,58.822,29.739ZM62,57a5.006,5.006,0,0,1-5,5H7A5,5,0,0,1,7,52H57A5.006,5.006,0,0,1,62,57ZM7,50a3,3,0,0,1,0-6H44.586l3.293,3.293a3,3,0,0,0,4.242,0L55.414,44H57a3,3,0,0,1,0,6ZM58.5,39a1.5,1.5,0,0,1,1.492,1.658A1.594,1.594,0,0,1,58.357,42H55a1,1,0,0,0-.707.293l-3.586,3.586a1,1,0,0,1-1.414,0l-3.586-3.586A1,1,0,0,0,45,42H5.5a1.5,1.5,0,0,1-1.492-1.659A1.594,1.594,0,0,1,5.643,39H58.5Zm.508-7.225A3,3,0,0,1,57,37H7a3,3,0,0,1-2.008-5.225c.017,0,.034,0,.05.006a3.685,3.685,0,0,0,1.722,0c.01,0,.019-.007.029-.01a3.852,3.852,0,0,0,.77-.273c.075-.036.143-.086.216-.127a4.024,4.024,0,0,0,.508-.326c.021-.018.048-.027.069-.045h.888c.026.021.055.035.082.055.084.066.175.122.264.18a3.79,3.79,0,0,0,.336.2,3.842,3.842,0,0,0,.4.179c.054.02.109.037.165.055a3.809,3.809,0,0,0,1.205.216,3.81,3.81,0,0,0,1.206-.216c.055-.017.109-.035.163-.055a3.969,3.969,0,0,0,.406-.179,3.774,3.774,0,0,0,.335-.2c.089-.058.18-.113.264-.179.026-.021.056-.035.082-.056h.888c.026.021.056.036.082.056.084.065.173.12.261.178a3.659,3.659,0,0,0,.341.2,4.065,4.065,0,0,0,.4.177c.057.021.114.039.172.057a3.462,3.462,0,0,0,2.4,0c.058-.018.115-.036.172-.057a4.065,4.065,0,0,0,.4-.177,3.659,3.659,0,0,0,.341-.2c.088-.058.177-.113.261-.178.026-.02.056-.035.082-.056h.888c.026.021.056.035.082.056.084.065.174.12.263.179a3.807,3.807,0,0,0,.337.2,3.919,3.919,0,0,0,.4.179c.056.02.111.038.167.055a3.469,3.469,0,0,0,2.41,0c.055-.018.109-.035.163-.055a3.669,3.669,0,0,0,.74-.376c.09-.059.181-.115.265-.181.027-.02.056-.034.082-.055h.888c.025.021.055.035.08.055.085.066.176.122.266.18a3.587,3.587,0,0,0,.337.2,3.781,3.781,0,0,0,.4.177c.056.021.113.039.17.057a3.465,3.465,0,0,0,2.4,0c.058-.018.115-.036.172-.057a3.962,3.962,0,0,0,.4-.177,3.533,3.533,0,0,0,.341-.2c.088-.058.177-.113.261-.178.026-.02.056-.035.082-.056h.888c.026.021.056.036.082.056.084.065.173.12.261.178a3.533,3.533,0,0,0,.341.2,4.065,4.065,0,0,0,.4.177c.057.021.114.039.172.057a3.462,3.462,0,0,0,2.4,0c.058-.018.115-.036.171-.057a4,4,0,0,0,.4-.177,3.587,3.587,0,0,0,.337-.2c.09-.058.181-.114.266-.18.025-.02.055-.034.08-.055h.888c.026.021.055.035.082.055.084.066.175.122.264.18a3.79,3.79,0,0,0,.336.2,3.842,3.842,0,0,0,.4.179c.054.02.109.037.165.055a3.472,3.472,0,0,0,2.411,0c.055-.017.109-.035.163-.055a3.969,3.969,0,0,0,.406-.179,3.774,3.774,0,0,0,.335-.2c.089-.058.18-.113.264-.179.026-.021.056-.035.082-.056h.888c.026.021.056.036.082.056.084.065.173.12.261.178a3.659,3.659,0,0,0,.341.2,4.065,4.065,0,0,0,.4.177c.057.021.114.039.172.057a3.462,3.462,0,0,0,2.4,0c.058-.018.115-.036.172-.057a4.065,4.065,0,0,0,.4-.177,3.659,3.659,0,0,0,.341-.2c.088-.058.177-.113.261-.178.026-.02.056-.035.082-.056h.888c.026.021.056.035.082.056.084.065.174.12.263.179a3.807,3.807,0,0,0,.337.2,3.919,3.919,0,0,0,.4.179c.056.02.111.038.167.055a3.469,3.469,0,0,0,2.41,0c.055-.018.109-.035.163-.055a3.669,3.669,0,0,0,.74-.376c.09-.059.181-.115.265-.181.027-.02.056-.034.082-.055h.888c.021.018.048.028.07.045a3.925,3.925,0,0,0,.5.323c.076.042.145.094.223.131a3.855,3.855,0,0,0,.76.269c.013,0,.025.01.038.013a3.685,3.685,0,0,0,1.722,0C58.974,31.778,58.991,31.779,59.008,31.775ZM58.5,20a1.5,1.5,0,0,1,0,3H5.5a1.5,1.5,0,0,1,0-3h53Z"/><path class="cls-13" d="M18,10H16a1,1,0,0,1,0-2h2a1,1,0,0,1,0,2Z"/><path class="cls-13" d="M20,16H18a1,1,0,0,1,0-2h2a1,1,0,0,1,0,2Z"/><path class="cls-13" d="M12,13H10a1,1,0,0,1,0-2h2a1,1,0,0,1,0,2Z"/><path class="cls-13" d="M32,10H30a1,1,0,0,1,0-2h2a1,1,0,0,1,0,2Z"/><path class="cls-13" d="M34,16H32a1,1,0,0,1,0-2h2a1,1,0,0,1,0,2Z"/><path class="cls-13" d="M26,13H24a1,1,0,0,1,0-2h2a1,1,0,0,1,0,2Z"/><path class="cls-13" d="M46,10H44a1,1,0,0,1,0-2h2a1,1,0,0,1,0,2Z"/><path class="cls-13" d="M48,16H46a1,1,0,0,1,0-2h2a1,1,0,0,1,0,2Z"/><path class="cls-13" d="M40,13H38a1,1,0,0,1,0-2h2a1,1,0,0,1,0,2Z"/><path class="cls-13" d="M27,6H25a1,1,0,0,1,0-2h2a1,1,0,0,1,0,2Z"/><path class="cls-13" d="M41,6H39a1,1,0,0,1,0-2h2a1,1,0,0,1,0,2Z"/><path class="cls-13" d="M54,13H52a1,1,0,0,1,0-2h2a1,1,0,0,1,0,2Z"/><path class="cls-13" d="M11,60H9a1,1,0,0,1,0-2h2a1,1,0,0,1,0,2Z"/><path class="cls-13" d="M29,56H27a1,1,0,0,1,0-2h2a1,1,0,0,1,0,2Z"/><path class="cls-13" d="M53,60H51a1,1,0,0,1,0-2h2a1,1,0,0,1,0,2Z"/></g></svg>